{"title":"Chappelle's Show Complete Series [DVDRip 480p AC3][Uncut]","uid":13840883,"size":11739314628,"categoryP":"video","categoryS":"tv_shows","magnet":"?xt=urn:btih:455385aa412e6314b1f6122d97f1cc6b6e1b4616&amp;dn=Chappelle%27s+Show+Complete+Series+%5BDVDRip+480p+AC3%5D%5BUncut%5D&amp;tr=udp%3A%2F%2Ftracker.leechers-paradise.org%3A6969&amp;tr=udp%3A%2F%2Fzer0day.ch%3A1337&amp;tr=udp%3A%2F%2Fopen.demonii.com%3A1337&amp;tr=udp%3A%2F%2Ftracker.coppersurfer.tk%3A6969&amp;tr=udp%3A%2F%2Fexodus.desync.com%3A6969","seeders":5,"leechers":2,"uploader":"AtaraxiaPrime","files":30,"time":1457795483,"description":"CHAPPELLE'S SHOW: THE COMPLETE SERIES (DVD)\r\n----------------------------------------\r\n\r\n&quot;Chappelle's Show&quot; takes comedian Dave Chappelle's own personal joke book and brings it to life, with episodes consisting of sketches, man-on-the-street pieces, and pop culture parodies introduced by Dave in a stand-up format in front of a studio audience. Chappelle's unique point-of-view on the world provides a hilarious, defiant and sometimes dangerous look at American culture, including music, movies, television, advertising, current events, and everyday life situations.\r\n\r\nEPISODE LIST\r\n----------------------------------------\r\n\r\nSEASON 1\r\nE01\tBlack White Supremacist\t\t\t\t\t2003-01-22\r\nE02\tIntroducing Tyrone Biggums\t\t\t\t2003-01-29\r\nE03\tLove Those Breasts\t\t\t\t\t2003-02-05\r\nE04\tSlavery Reparations\t\t\t\t\t2003-02-12\r\nE05\tGreat Moments in Hookup History\t\t\t\t2003-02-19\r\nE06\tThe Mad Real World\t\t\t\t\t2003-02-26\r\nE07\tWu-Tang Consulting Firm\t\t\t\t\t2003-03-05\r\nE08\tThe Return of Tyrone Biggums\t\t\t\t2003-03-12\r\nE09\tBlackzilla\t\t\t\t\t\t2003-03-19\r\nE10\tInner City Gang Wars\t\t\t\t\t2003-03-26\r\nE11\tFisticuffs\t\t\t\t\t\t2003-04-02\r\nE12\tTrading Spouses\t\t\t\t\t\t2003-04-09\r\n\r\nSEASON 2\r\nE01\tThe Racial Draft\t\t\t\t\t2004-01-21\r\nE02\tThe Niggar Family\t\t\t\t\t2004-01-28\r\nE03\tWhite People Can't Dance\t\t\t\t2004-02-04\r\nE04\tTrue Hollywood Stories - Rick James\t\t\t2004-02-11\r\nE05\tTrue Hollywood Stories - Prince\t\t\t\t2004-02-18\r\nE06\tIf The Internet Were Real\t\t\t\t2004-02-25\r\nE07\tWorld Series of Dice\t\t\t\t\t2004-03-03\r\nE08\tI Know Black People\t\t\t\t\t2004-03-10\r\nE09\tOprah's Baby Daddy\t\t\t\t\t2004-03-24\r\nE10\tMaking Da Band\t\t\t\t\t\t2004-03-25\r\nE11\tGreatest Misses\t\t\t\t\t\t2004-03-31\r\nE12\tThe Wayne Brady Show\t\t\t\t\t2004-04-07\r\nE13\tBlack Bush\t\t\t\t\t\t2004-04-14\r\n\r\nSEASON 3\r\nE01\tLost Episode 1\t\t\t\t\t\t2006-07-09\t\r\nE02\tLost Episode 2\t\t\t\t\t\t2006-07-16\t\r\nE03\tLost Episode 3\t\t\t\t\t\t2006-07-23\r\n\r\nMEDIA INFO\r\n----------------------------------------\r\n\r\nGeneral\r\nComplete name                            : Season 1E04.Slavery Reparations.mkv\r\nFormat                                   : Matroska\r\nFormat version                           : Version 2\r\nFile size                                : 395 MiB\r\nDuration                                 : 17mn 27s\r\nOverall bit rate                         : 3 162 Kbps\r\nEncoded date                             : UTC 2016-02-12T02:43:30Z\r\nWriting application                      : HandBrake 0.10.3 2016012200\r\nWriting library                          : Lavf55.12.0 / Lavf55.12.0\r\n\r\nVideo\r\nID                                       : 1\r\nFormat                                   : AVC\r\nFormat/Info                              : Advanced Video Codec\r\nFormat profile                           :   \r\nFormat settings, CABAC                   : Yes\r\nFormat settings, ReFrames                : 16 frames\r\nCodec ID                                 : V_MPEG4/ISO/AVC\r\nDuration                                 : 17mn 27s\r\nBit rate                                 : 2 907 Kbps\r\nWidth                                    : 716 pixels\r\nHeight                                   : 480 pixels\r\nDisplay aspect ratio                     : 4:3\r\nOriginal display aspect ratio            : 4:3\r\nFrame rate mode                          : Constant\r\nFrame rate                               : 29.970 (30000/1001) fps\r\nColor space                              : YUV\r\nChroma subsampling                       : 4:2:0\r\nBit depth                                : 8 bits\r\nScan type                                : Progressive\r\nBits/(Pixel*Frame)                       : 0.282\r\nStream size                              : 363 MiB (92%)\r\nWriting library                          : x264 core 142 r2479 dd79a61\r\nEncoding settings                        : cabac=1 / ref=16 / deblock=1:-1:-1 / analyse=0x3:0x133 / me=umh / subme=10 / psy=1 / psy_rd=1.00:0.15 / mixed_ref=1 / me_range=24 / chroma_me=1 / trellis=2 / 8x8dct=1 / cqm=0 / deadzone=21,11 / fast_pskip=1 / chroma_qp_offset=-3 / threads=12 / lookahead_threads=2 / sliced_threads=0 / nr=0 / decimate=1 / interlaced=0 / bluray_compat=0 / constrained_intra=0 / bframes=8 / b_pyramid=2 / b_adapt=2 / b_bias=0 / direct=3 / weightb=1 / open_gop=0 / weightp=2 / keyint=300 / keyint_min=30 / scenecut=40 / intra_refresh=0 / rc_lookahead=60 / rc=crf / mbtree=1 / crf=18.0 / qcomp=0.60 / qpmin=0 / qpmax=69 / qpstep=4 / vbv_maxrate=300000 / vbv_bufsize=300000 / crf_max=0.0 / nal_hrd=none / filler=0 / ip_ratio=1.40 / aq=1:1.00\r\nDefault                                  : Yes\r\nForced                                   : No\r\nColor range                              : Limited\r\nColor primaries                          : BT.601 NTSC\r\nTransfer characteristics                 : BT.709\r\nMatrix coefficients                      : BT.601\r\n\r\nAudio\r\nID                                       : 2\r\nFormat                                   : AC-3\r\nFormat/Info                              : Audio Coding 3\r\nMode extension                           : CM (complete main)\r\nFormat settings, Endianness              : Big\r\nCodec ID                                 : A_AC3\r\nDuration                                 : 17mn 27s\r\nBit rate mode                            : Constant\r\nBit rate                                 : 192 Kbps\r\nChannel(s)                               : 2 channels\r\nChannel positions                        : Front: L R\r\nSampling rate                            : 48.0 KHz\r\nFrame rate                               : 31.250 fps (1536 spf)\r\nCompression mode                         : Lossy\r\nStream size                              : 24.0 MiB (6%)\r\nTitle                                    : Stereo\r\nDefault                                  : Yes\r\nForced                                   : No\r\n\r\nText\r\nID                                       : 3\r\nFormat                                   : ASS\r\nCodec ID                                 : S_TEXT/ASS\r\nCodec ID/Info                            : Advanced Sub Station Alpha\r\nCompression mode                         : Lossless\r\nDefault                                  : No\r\nForced                                   : No\r\n\r\nSCREENSHOTS\r\n----------------------------------------\r\n \nhttp://anony.ws/i/2016/03/11/001.png \nhttp://anony.ws/i/2016/03/11/002.png \nhttp://anony.ws/i/2016/03/11/003.png \nhttp://anony.ws/i/2016/03/11/004.png \nhttp://anony.ws/i/2016/03/11/005.png \nhttp://anony.ws/i/2016/03/11/006.png \nhttp://anony.ws/i/2016/03/11/007.png \nhttp://anony.ws/i/2016/03/11/008.png \nhttp://anony.ws/i/2016/03/11/009.png \nhttp://anony.ws/i/2016/03/11/010.png\r\n\r\n----------------------------------------\r\n\r\nAtaraxiaPrime","torrent":{"xt":"urn:btih:455385aa412e6314b1f6122d97f1cc6b6e1b4616","amp;dn":"Chappelle%27s+Show+Complete+Series+%5BDVDRip+480p+AC3%5D%5BUncut%5D","amp;tr":["udp%3A%2F%2Ftracker.leechers-paradise.org%3A6969","udp%3A%2F%2Fzer0day.ch%3A1337","udp%3A%2F%2Fopen.demonii.com%3A1337","udp%3A%2F%2Ftracker.coppersurfer.tk%3A6969","udp%3A%2F%2Fexodus.desync.com%3A6969"],"infoHash":"455385aa412e6314b1f6122d97f1cc6b6e1b4616","infoHashBuffer":{"type":"Buffer","data":[69,83,133,170,65,46,99,20,177,246,18,45,151,241,204,107,110,27,70,22]},"announce":[],"urlList":[]}}